<!--?xml version="1.0" encoding="utf-8"?-->
<!-- Generator: Adobe Illustrator 19.1.1, SVG Export Plug-In . SVG Version: 6.00 Build 0)  -->
<svg version="1.1" id="_x31_0" xmlns="http://www.w3.org/2000/svg" xmlns:xlink="http://www.w3.org/1999/xlink" x="0px" y="0px" viewBox="0 0 512 512" style="width: 512px; height: 512px; opacity: 1;" xml:space="preserve">
<style type="text/css">
	.st0{fill:#374149;}
</style>
<g>
	<path class="st0" d="M510.274,443.772c-1.114-1.121-2.629-1.754-4.211-1.754H473.25v-40.637h26.962
		c5.594,0,10.144-4.551,10.144-10.145v-45.816c0-5.594-4.55-10.141-10.144-10.141h-33.5v-26.57
		c10.766-1.914,17.789-3.324,18.718-3.508l15.289-3.038c6.199-1.234,10.313-7.294,9.172-13.504l-7.973-43.18
		c-0.566-3.082-2.308-5.75-4.906-7.508c-2.594-1.762-5.715-2.398-8.798-1.781l-15.785,3.141c-0.77,0.16-80.242,15.89-126.91,15.89
		c-24.374-0.043-37.706-1.363-50.59-2.637c-12.906-1.305-27.531-2.789-53.106-2.832c-52.254,0-92.488,15.89-96.89,17.699
		l-14.282,5.824c-5.882,2.402-8.73,8.938-6.484,14.879l15.508,41.058c0.742,1.965,2.09,3.519,3.679,4.801
		c0.461,0.422,0.867,0.89,1.391,1.266h-9.59c-5.594,0-10.148,4.547-10.148,10.141v45.816c0,5.594,4.554,10.145,10.148,10.145h10.297
		v40.637H116.25V280.522c0-22.286,15.497-44.18,17.215-46.543l3.141-4.047c0.812-1.038,1.25-2.324,1.25-3.64v-38.004
		c0-2.039-1.05-3.942-2.777-5.027l-16.645-10.43l9.492-25.422c0.68-1.824,0.422-3.867-0.687-5.461c-1.11-1.602-2.93-2.55-4.875-2.55
		h-12.398v-5.344c0-3.278-2.656-5.934-5.938-5.934H97.32l-1.71-4.641c-0.86-2.332-3.086-3.882-5.57-3.882H47.855
		c-2.484,0-4.71,1.55-5.57,3.882l-1.706,4.641h-6.711c-3.278,0-5.938,2.656-5.938,5.934v5.344H15.535
		c-1.946,0-3.766,0.949-4.875,2.55c-1.11,1.594-1.367,3.637-0.687,5.457l9.465,25.422L2.793,183.253
		C1.054,184.338,0,186.241,0,188.288v38.004c0,1.332,0.45,2.625,1.27,3.672l3.137,3.984c1.758,2.422,17.199,24.324,17.199,46.574
		v161.496h-4.91c-3.278,0-5.938,2.66-5.938,5.938v36.714c0,3.278,2.66,5.934,5.938,5.934H505.84c3.266,0,5.918-2.637,5.938-5.902
		l0.222-36.71C512.008,446.409,511.386,444.89,510.274,443.772z M108.246,234.807c-6.016,11.098-13,27.809-13,45.715v167.434H42.606
		V280.522c0-17.946-7.016-34.691-13.043-45.793h53.355L108.246,234.807z M88.961,155.147H48.934v-6.027h6.285l3.141-8.523h21.133
		l3.188,8.523h6.281V155.147z M99.402,163.807l-4.156,11.137H43.383v1.051l-0.102,0.66l-4.805-12.902h45.277L99.402,163.807z
		 M43.383,182.702v0.852h52.64l20.828,13.039v4.523h-3.14v13.512h3.14c0,0,0,3.359,0,6.5c0,0-1.374,1.808-3.484,4.992H24.442
		c-2.062-3.184-3.442-4.992-3.442-4.992c0-3.141,0-6.5,0-6.5h3.183v-13.512H21v-4.523l14.687-9.18L43.383,182.702z M454.402,395.448
		v50.484h-15.707v-50.484H454.402z M425.781,395.448v52.508h-49.93v-52.508H425.781z M362.942,395.448v50.484H347.23v-50.484
		H362.942z M334.32,395.448v52.508h-49.93v-52.508H334.32z M271.477,395.448v50.484H255.77v-50.484H271.477z M242.855,395.448
		v52.508h-49.93v-52.508H242.855z M180.015,395.448v50.484h-15.71v-50.484H180.015z M480.058,278.288
		c-0.992,0.214-8.222,1.637-19.285,3.57c-5.035,0.902-10.844,1.89-17.219,2.93c-11.874,1.934-25.691,4.043-39.894,5.766
		c-5.683,0.73-11.453,1.375-17.218,1.938c-13.989,1.422-27.762,2.367-39.898,2.41h-1.246c-5.898,0-11.152-0.086-15.973-0.214
		c-16.527-0.43-27.546-1.508-38.262-2.582c-0.562-0.042-1.121-0.086-1.637-0.175c-5.55-0.512-11.019-1.074-17.214-1.504
		c-8.223-0.559-17.692-0.946-30.219-0.946h-0.168c-3.23,0-6.414,0.086-9.558,0.215c-5.981,0.258-11.75,0.73-17.215,1.418
		c-16.226,1.89-30.086,5.207-39.898,8.004c-9.683,2.801-15.41,5.082-15.538,5.164l-1.68-4.43l-2.625-6.973
		c1.25-0.515,25.48-10.328,59.742-14.164c3.27-0.344,6.672-0.683,10.114-0.898c5.383-0.386,10.934-0.606,16.66-0.606h0.215
		c23.457,0.043,37.015,1.379,50.141,2.715c13.558,1.332,27.59,2.71,53.156,2.754h0.172c49.629,0,131.535-16.274,132.355-16.402
		L480.058,278.288z M175.152,321.631c8.137-2.586,22.422-6.542,39.898-8.828v28.41h-39.898V321.631z M232.266,311.253
		c3.098-0.168,6.328-0.254,9.558-0.254c12.867,0,22.164,0.387,30.387,0.989v29.226h-39.946V311.253z M289.426,313.538
		c11.106,1.118,22.598,2.238,39.898,2.668v25.008h-39.898V313.538z M346.543,316.421c12.179-0.043,25.953-0.946,39.898-2.321v27.114
		h-39.898V316.421z M403.66,312.206c14.118-1.683,27.887-3.703,39.894-5.598v34.606H403.66V312.206z M482.898,373.925h-330.43
		v-11.192h330.43V373.925z" style="fill: rgb(75, 75, 75);"></path>
	<rect x="36.11" y="201.327" class="st0" width="14.546" height="15.71" style="fill: rgb(75, 75, 75);"></rect>
	<rect x="61.672" y="201.327" class="st0" width="14.55" height="15.71" style="fill: rgb(75, 75, 75);"></rect>
	<rect x="87.199" y="201.327" class="st0" width="14.547" height="15.71" style="fill: rgb(75, 75, 75);"></rect>
	<polygon class="st0" points="222.133,406.811 221.981,406.811 222.133,406.651 202.012,406.651 202.012,427.597 213.851,415.272 	
		" style="fill: rgb(75, 75, 75);"></polygon>
	<polygon class="st0" points="313.066,406.811 312.914,406.811 313.066,406.651 292.949,406.651 292.949,427.597 304.785,415.272 	
		" style="fill: rgb(75, 75, 75);"></polygon>
	<polygon class="st0" points="404.004,406.811 403.851,406.811 404.004,406.651 383.886,406.651 383.886,427.597 395.722,415.272 	
		" style="fill: rgb(75, 75, 75);"></polygon>
	<path class="st0" d="M229.598,80.194l18.946,19.254c-0.867,0.527-1.723,1.043-2.547,1.539c-25.871,4.91-25.961,4.942-26.16,5.015
		c-0.305,0.122-0.352,0.137-2.398,1.657c-0.848,0.629-1.188,1.722-0.848,2.722c0.344,1,1.282,1.656,2.336,1.633l4.274-0.094
		l3.402-0.531l3.125-0.344l-0.078,0.047l3.25,8.531l3.117-0.305c2.594-0.258,63.661-6.293,77.282-11.485l44.797-17.082l9.016-0.687
		l0.602,1.578l4.82-0.457l1.254,4.758l0.118,0.5l0.015-0.008l0.039,0.157l25.606-9.766l4.715-4.348l-3.11-8.152l42.77-16.313
		c12.965-4.942,25.066-12.621,28.894-15.566c3.242-2.496,4.934-5.89,4.527-9.082c-0.32-2.539-1.91-4.59-4.351-5.63l-1.055-0.453
		c-3.14-1.363-8.39-3.645-15.473-5.211c-9.613-2.125-24.874,0.758-45.359,8.57l-81.082,30.918
		c-8.086,3.082-13.637,5.105-18.325,6.812c-7.48,2.726-12.89,4.699-22.863,8.898c-2.706,1.137-6.07,2.79-9.746,4.711
		c-3.336-0.649-6.602-1.652-9.738-3.027l-40.516-17.723l-9.254,3.532l-3.816,1.386l0.05,0.05l-0.164,0.063L229.598,80.194z" style="fill: rgb(75, 75, 75);"></path>
</g>
</svg>
